<svg width="1200" height="1200" viewBox="0 0 1200 1200" fill="none" xmlns="http://www.w3.org/2000/svg">
  <g opacity="0.42" fill="#D8D0C7">
    <path d="M600 120C503 123 424 160 372 221C321 281 291 358 286 459C281 564 315 656 387 733C445 796 518 833 600 844C682 833 755 796 813 733C885 656 919 564 914 459C909 358 879 281 828 221C776 160 697 123 600 120Z"/>
    <path d="M600 190C531 192 475 221 435 273C396 325 372 390 367 468C362 550 387 616 443 667C486 706 538 731 600 744C662 731 714 706 757 667C813 616 838 550 833 468C828 390 804 325 765 273C725 221 669 192 600 190Z"/>
    <path d="M600 367C578 395 567 428 567 465C567 514 578 557 600 594C622 557 633 514 633 465C633 428 622 395 600 367Z"/>
    <path d="M539 839L600 980L661 839"/>
  </g>
  <g opacity="0.92" stroke="#111111" stroke-width="12" stroke-linecap="round" stroke-linejoin="round">
    <path d="M600 120C503 123 424 160 372 221C321 281 291 358 286 459C281 564 315 656 387 733C445 796 518 833 600 844C682 833 755 796 813 733C885 656 919 564 914 459C909 358 879 281 828 221C776 160 697 123 600 120Z"/>
    <path d="M600 190C531 192 475 221 435 273C396 325 372 390 367 468C362 550 387 616 443 667C486 706 538 731 600 744C662 731 714 706 757 667C813 616 838 550 833 468C828 390 804 325 765 273C725 221 669 192 600 190Z"/>
    <path d="M473 420C503 379 539 358 580 358C547 395 530 438 529 487C497 484 478 462 473 420Z"/>
    <path d="M727 420C697 379 661 358 620 358C653 395 670 438 671 487C703 484 722 462 727 420Z"/>
    <path d="M500 432C525 420 549 420 571 433"/>
    <path d="M700 432C675 420 651 420 629 433"/>
    <path d="M529 503C560 531 584 571 600 624C616 571 640 531 671 503"/>
    <path d="M533 511C553 507 575 510 600 523C625 510 647 507 667 511"/>
    <path d="M555 595C575 612 590 635 600 664C610 635 625 612 645 595"/>
    <path d="M600 664C588 700 586 732 594 762"/>
    <path d="M600 664C612 700 614 732 606 762"/>
    <path d="M445 264C419 295 398 334 382 380"/>
    <path d="M755 264C781 295 802 334 818 380"/>
    <path d="M393 332C353 364 324 405 306 456"/>
    <path d="M807 332C847 364 876 405 894 456"/>
    <path d="M381 531C390 592 413 644 451 688"/>
    <path d="M819 531C810 592 787 644 749 688"/>
    <path d="M458 764C485 792 514 814 547 829"/>
    <path d="M742 764C715 792 686 814 653 829"/>
    <path d="M476 242C509 209 550 190 600 184C650 190 691 209 724 242"/>
    <path d="M513 300C484 321 461 349 445 383"/>
    <path d="M687 300C716 321 739 349 755 383"/>
    <path d="M600 367C578 395 567 428 567 465C567 514 578 557 600 594C622 557 633 514 633 465C633 428 622 395 600 367Z"/>
    <path d="M575 603C561 611 553 624 551 641C567 646 583 653 600 664C617 653 633 646 649 641C647 624 639 611 625 603"/>
    <path d="M530 693C555 700 578 714 600 735C622 714 645 700 670 693"/>
    <path d="M519 768C546 776 573 792 600 816C627 792 654 776 681 768"/>
    <path d="M432 379C454 394 473 414 489 441"/>
    <path d="M768 379C746 394 727 414 711 441"/>
    <path d="M419 476C448 489 474 510 498 540"/>
    <path d="M781 476C752 489 726 510 702 540"/>
    <path d="M441 623C480 638 515 664 546 703"/>
    <path d="M759 623C720 638 685 664 654 703"/>
    <path d="M397 703C439 724 474 756 503 800"/>
    <path d="M803 703C761 724 726 756 697 800"/>
    <path d="M366 227L297 331"/>
    <path d="M834 227L903 331"/>
    <path d="M329 254L260 392"/>
    <path d="M871 254L940 392"/>
    <path d="M309 501L247 618"/>
    <path d="M891 501L953 618"/>
    <path d="M371 816L462 897"/>
    <path d="M829 816L738 897"/>
    <path d="M539 839L600 980L661 839"/>
    <path d="M306 456C359 417 410 405 460 420"/>
    <path d="M894 456C841 417 790 405 740 420"/>
    <path d="M341 630C387 607 431 606 474 626"/>
    <path d="M859 630C813 607 769 606 726 626"/>
    <path d="M487 898C523 884 561 877 600 876C639 877 677 884 713 898"/>
  </g>
</svg>
